<mxfile host="app.diagrams.net" modified="2023-11-29T20:11:00.155Z" agent="Mozilla/5.0 (Windows NT 10.0; Win64; x64) AppleWebKit/537.36 (KHTML, like Gecko) Chrome/119.0.0.0 Safari/537.36" etag="Y7S9hL2CcSb0U72B9ExB" version="22.1.5" type="github">
  <diagram name="Page-1" id="NoA4tL0lyoeJ_pu2txeq">
    <mxGraphModel dx="1615" dy="883" grid="0" gridSize="10" guides="1" tooltips="1" connect="1" arrows="1" fold="1" page="1" pageScale="1" pageWidth="827" pageHeight="1169" math="0" shadow="0">
      <root>
        <mxCell id="0" />
        <mxCell id="1" parent="0" />
        <mxCell id="0330wYEYBAH9GmE9Lu0X-1" value="Vertical Container" style="swimlane;whiteSpace=wrap;html=1;" vertex="1" parent="1">
          <mxGeometry x="312" y="246" width="200" height="137" as="geometry" />
        </mxCell>
        <mxCell id="0330wYEYBAH9GmE9Lu0X-2" value="Ciudadano" style="swimlane;whiteSpace=wrap;html=1;startSize=23;" vertex="1" parent="1">
          <mxGeometry x="25" y="482" width="200" height="200" as="geometry" />
        </mxCell>
        <mxCell id="0330wYEYBAH9GmE9Lu0X-30" value="Nombre : string&lt;br&gt;&lt;div style=&quot;&quot;&gt;&lt;span style=&quot;background-color: initial;&quot;&gt;Apellido: string&lt;/span&gt;&lt;/div&gt;" style="text;html=1;strokeColor=none;fillColor=none;align=left;verticalAlign=middle;whiteSpace=wrap;rounded=0;" vertex="1" parent="0330wYEYBAH9GmE9Lu0X-2">
          <mxGeometry x="6" y="29" width="142" height="30" as="geometry" />
        </mxCell>
        <mxCell id="0330wYEYBAH9GmE9Lu0X-56" value="generarCertificado(ciudadano: Ciudadano, dosisVacunas: DosisVacuna[], idioma)" style="text;html=1;strokeColor=none;fillColor=none;align=left;verticalAlign=middle;whiteSpace=wrap;rounded=0;" vertex="1" parent="0330wYEYBAH9GmE9Lu0X-2">
          <mxGeometry x="6" y="132" width="142" height="30" as="geometry" />
        </mxCell>
        <mxCell id="0330wYEYBAH9GmE9Lu0X-3" value="Usuario" style="swimlane;whiteSpace=wrap;html=1;" vertex="1" parent="1">
          <mxGeometry x="312" y="246" width="200" height="137" as="geometry" />
        </mxCell>
        <mxCell id="0330wYEYBAH9GmE9Lu0X-4" value="&lt;div style=&quot;text-align: left;&quot;&gt;&lt;span style=&quot;background-color: initial;&quot;&gt;-C.I : int&lt;/span&gt;&lt;/div&gt;&lt;div style=&quot;text-align: left;&quot;&gt;&lt;span style=&quot;background-color: initial;&quot;&gt;-FechaNacimiento : date&lt;/span&gt;&lt;/div&gt;&lt;div style=&quot;text-align: left;&quot;&gt;&lt;span style=&quot;background-color: initial;&quot;&gt;rol : string&lt;/span&gt;&lt;/div&gt;" style="text;html=1;align=center;verticalAlign=middle;resizable=0;points=[];autosize=1;strokeColor=none;fillColor=none;" vertex="1" parent="0330wYEYBAH9GmE9Lu0X-3">
          <mxGeometry x="3" y="25" width="149" height="55" as="geometry" />
        </mxCell>
        <mxCell id="0330wYEYBAH9GmE9Lu0X-9" value="PersonalAutorizado" style="swimlane;whiteSpace=wrap;html=1;" vertex="1" parent="1">
          <mxGeometry x="619" y="480" width="200" height="200" as="geometry" />
        </mxCell>
        <mxCell id="0330wYEYBAH9GmE9Lu0X-13" value="Nombre : string&lt;br&gt;Apellido : string&lt;br&gt;CentroVacunacion : string" style="text;html=1;strokeColor=none;fillColor=none;align=left;verticalAlign=middle;whiteSpace=wrap;rounded=0;" vertex="1" parent="0330wYEYBAH9GmE9Lu0X-9">
          <mxGeometry x="10" y="33" width="158" height="30" as="geometry" />
        </mxCell>
        <mxCell id="0330wYEYBAH9GmE9Lu0X-12" value="&lt;div style=&quot;border-color: var(--border-color); text-align: left;&quot;&gt;CertificadoVacunacion.&lt;/div&gt;&lt;div style=&quot;border-color: var(--border-color); text-align: left;&quot;&gt;cargarDatosVacunacion&lt;/div&gt;&lt;div style=&quot;border-color: var(--border-color); text-align: left;&quot;&gt;(personalAutorizado: PersonalAutorizado, dosisVacuna: DosisVacuna): void&lt;/div&gt;&lt;div style=&quot;border-color: var(--border-color); text-align: left;&quot;&gt;&lt;br&gt;&lt;/div&gt;" style="text;html=1;strokeColor=none;fillColor=none;align=center;verticalAlign=middle;whiteSpace=wrap;rounded=0;" vertex="1" parent="0330wYEYBAH9GmE9Lu0X-9">
          <mxGeometry x="8" y="123" width="173" height="30" as="geometry" />
        </mxCell>
        <mxCell id="0330wYEYBAH9GmE9Lu0X-58" value="" style="endArrow=none;html=1;rounded=0;" edge="1" parent="0330wYEYBAH9GmE9Lu0X-9">
          <mxGeometry width="50" height="50" relative="1" as="geometry">
            <mxPoint x="-1" y="77" as="sourcePoint" />
            <mxPoint x="198" y="75" as="targetPoint" />
          </mxGeometry>
        </mxCell>
        <mxCell id="0330wYEYBAH9GmE9Lu0X-10" value="" style="endArrow=none;html=1;rounded=0;entryX=1;entryY=0.5;entryDx=0;entryDy=0;exitX=0;exitY=0.5;exitDx=0;exitDy=0;" edge="1" parent="1" source="0330wYEYBAH9GmE9Lu0X-2" target="0330wYEYBAH9GmE9Lu0X-2">
          <mxGeometry width="50" height="50" relative="1" as="geometry">
            <mxPoint x="244" y="630" as="sourcePoint" />
            <mxPoint x="294" y="580" as="targetPoint" />
          </mxGeometry>
        </mxCell>
        <mxCell id="0330wYEYBAH9GmE9Lu0X-15" value="Dosis vacuna" style="swimlane;whiteSpace=wrap;html=1;startSize=23;" vertex="1" parent="1">
          <mxGeometry x="312" y="755" width="200" height="200" as="geometry" />
        </mxCell>
        <mxCell id="0330wYEYBAH9GmE9Lu0X-18" value="codigoLote : string&lt;br&gt;codigoVacuna : string&lt;br&gt;Dosis : string&lt;br&gt;lugarVacunacion : string&lt;br&gt;fechaAplicacion : date" style="text;html=1;strokeColor=none;fillColor=none;align=left;verticalAlign=middle;whiteSpace=wrap;rounded=0;" vertex="1" parent="0330wYEYBAH9GmE9Lu0X-15">
          <mxGeometry x="6" y="31" width="140" height="127" as="geometry" />
        </mxCell>
        <mxCell id="0330wYEYBAH9GmE9Lu0X-21" value="&amp;nbsp;CertificadoVacunacion" style="swimlane;whiteSpace=wrap;html=1;startSize=23;" vertex="1" parent="1">
          <mxGeometry x="25" y="757" width="200" height="200" as="geometry" />
        </mxCell>
        <mxCell id="0330wYEYBAH9GmE9Lu0X-23" value="Nombre : string&lt;br&gt;Apellido : string&lt;br&gt;fecha de nacimiento:&amp;nbsp; date&lt;br&gt;qr : string&lt;br&gt;idioma: string" style="text;html=1;strokeColor=none;fillColor=none;align=left;verticalAlign=middle;whiteSpace=wrap;rounded=0;" vertex="1" parent="0330wYEYBAH9GmE9Lu0X-21">
          <mxGeometry x="6" y="31" width="153" height="127" as="geometry" />
        </mxCell>
        <mxCell id="0330wYEYBAH9GmE9Lu0X-24" value="" style="endArrow=classic;html=1;rounded=0;exitX=1;exitY=0.5;exitDx=0;exitDy=0;" edge="1" parent="1" source="0330wYEYBAH9GmE9Lu0X-21">
          <mxGeometry width="50" height="50" relative="1" as="geometry">
            <mxPoint x="320" y="682" as="sourcePoint" />
            <mxPoint x="313" y="857" as="targetPoint" />
          </mxGeometry>
        </mxCell>
        <mxCell id="0330wYEYBAH9GmE9Lu0X-27" value="" style="endArrow=classic;html=1;rounded=0;exitX=0.5;exitY=0;exitDx=0;exitDy=0;entryX=1;entryY=0.5;entryDx=0;entryDy=0;" edge="1" parent="1" source="0330wYEYBAH9GmE9Lu0X-9" target="0330wYEYBAH9GmE9Lu0X-3">
          <mxGeometry width="50" height="50" relative="1" as="geometry">
            <mxPoint x="392" y="579" as="sourcePoint" />
            <mxPoint x="442" y="529" as="targetPoint" />
            <Array as="points">
              <mxPoint x="716" y="315" />
            </Array>
          </mxGeometry>
        </mxCell>
        <mxCell id="0330wYEYBAH9GmE9Lu0X-28" value="" style="endArrow=classic;html=1;rounded=0;exitX=0.5;exitY=0;exitDx=0;exitDy=0;entryX=0;entryY=0.5;entryDx=0;entryDy=0;" edge="1" parent="1" source="0330wYEYBAH9GmE9Lu0X-2" target="0330wYEYBAH9GmE9Lu0X-3">
          <mxGeometry width="50" height="50" relative="1" as="geometry">
            <mxPoint x="392" y="461" as="sourcePoint" />
            <mxPoint x="442" y="411" as="targetPoint" />
            <Array as="points">
              <mxPoint x="129" y="315" />
            </Array>
          </mxGeometry>
        </mxCell>
        <mxCell id="0330wYEYBAH9GmE9Lu0X-31" value="PlataformaVacunacion" style="swimlane;whiteSpace=wrap;html=1;startSize=23;" vertex="1" parent="1">
          <mxGeometry x="312" y="480" width="200" height="200" as="geometry" />
        </mxCell>
        <mxCell id="0330wYEYBAH9GmE9Lu0X-32" value="&lt;div&gt;generarCertificado(ciudadano: Ciudadano, dosisVacunas: DosisVacuna[], idioma): CertificadoVacunacion.&lt;/div&gt;&lt;div&gt;cargarDatosVacunacion&lt;/div&gt;&lt;div&gt;(personalAutorizado: PersonalAutorizado, dosisVacuna: DosisVacuna): void&lt;/div&gt;" style="text;html=1;strokeColor=none;fillColor=none;align=left;verticalAlign=middle;whiteSpace=wrap;rounded=0;" vertex="1" parent="0330wYEYBAH9GmE9Lu0X-31">
          <mxGeometry x="5" y="58" width="160" height="127" as="geometry" />
        </mxCell>
        <mxCell id="0330wYEYBAH9GmE9Lu0X-33" value="" style="endArrow=none;html=1;rounded=0;entryX=1;entryY=0.25;entryDx=0;entryDy=0;exitX=0;exitY=0.25;exitDx=0;exitDy=0;" edge="1" parent="1" source="0330wYEYBAH9GmE9Lu0X-31" target="0330wYEYBAH9GmE9Lu0X-31">
          <mxGeometry width="50" height="50" relative="1" as="geometry">
            <mxPoint x="586" y="831" as="sourcePoint" />
            <mxPoint x="636" y="781" as="targetPoint" />
          </mxGeometry>
        </mxCell>
        <mxCell id="0330wYEYBAH9GmE9Lu0X-34" value="" style="endArrow=classic;html=1;rounded=0;exitX=1;exitY=0.5;exitDx=0;exitDy=0;entryX=0;entryY=0.348;entryDx=0;entryDy=0;entryPerimeter=0;" edge="1" parent="1" source="0330wYEYBAH9GmE9Lu0X-2" target="0330wYEYBAH9GmE9Lu0X-32">
          <mxGeometry width="50" height="50" relative="1" as="geometry">
            <mxPoint x="375" y="758" as="sourcePoint" />
            <mxPoint x="299" y="677" as="targetPoint" />
          </mxGeometry>
        </mxCell>
        <mxCell id="0330wYEYBAH9GmE9Lu0X-35" value="" style="endArrow=classic;html=1;rounded=0;exitX=0;exitY=0.5;exitDx=0;exitDy=0;entryX=1;entryY=0.5;entryDx=0;entryDy=0;" edge="1" parent="1" source="0330wYEYBAH9GmE9Lu0X-9" target="0330wYEYBAH9GmE9Lu0X-31">
          <mxGeometry width="50" height="50" relative="1" as="geometry">
            <mxPoint x="628" y="655" as="sourcePoint" />
            <mxPoint x="678" y="605" as="targetPoint" />
          </mxGeometry>
        </mxCell>
        <mxCell id="0330wYEYBAH9GmE9Lu0X-36" value="" style="endArrow=classic;html=1;rounded=0;exitX=0.5;exitY=0;exitDx=0;exitDy=0;entryX=0.5;entryY=1;entryDx=0;entryDy=0;" edge="1" parent="1" source="0330wYEYBAH9GmE9Lu0X-15" target="0330wYEYBAH9GmE9Lu0X-31">
          <mxGeometry width="50" height="50" relative="1" as="geometry">
            <mxPoint x="374" y="656" as="sourcePoint" />
            <mxPoint x="471" y="754" as="targetPoint" />
          </mxGeometry>
        </mxCell>
        <mxCell id="0330wYEYBAH9GmE9Lu0X-38" value="" style="html=1;dropTarget=0;whiteSpace=wrap;" vertex="1" parent="1">
          <mxGeometry x="1761" y="250" width="549" height="411" as="geometry" />
        </mxCell>
        <mxCell id="0330wYEYBAH9GmE9Lu0X-39" value="" style="shape=module;jettyWidth=8;jettyHeight=4;" vertex="1" parent="0330wYEYBAH9GmE9Lu0X-38">
          <mxGeometry x="1" width="20" height="20" relative="1" as="geometry">
            <mxPoint x="-27" y="7" as="offset" />
          </mxGeometry>
        </mxCell>
        <mxCell id="0330wYEYBAH9GmE9Lu0X-40" value="Sistema de Certificados" style="text;align=center;fontStyle=1;verticalAlign=middle;spacingLeft=3;spacingRight=3;strokeColor=none;rotatable=0;points=[[0,0.5],[1,0.5]];portConstraint=eastwest;html=1;" vertex="1" parent="1">
          <mxGeometry x="1939" y="266" width="187" height="26" as="geometry" />
        </mxCell>
        <mxCell id="0330wYEYBAH9GmE9Lu0X-41" value="Generar Certificado&lt;br&gt;" style="shape=module;align=left;spacingLeft=20;align=center;verticalAlign=top;whiteSpace=wrap;html=1;" vertex="1" parent="1">
          <mxGeometry x="1851" y="371" width="376" height="50" as="geometry" />
        </mxCell>
        <mxCell id="0330wYEYBAH9GmE9Lu0X-42" value="Cargar datos de vacunacion" style="shape=module;align=left;spacingLeft=20;align=center;verticalAlign=top;whiteSpace=wrap;html=1;" vertex="1" parent="1">
          <mxGeometry x="1851" y="454" width="376" height="50" as="geometry" />
        </mxCell>
        <mxCell id="0330wYEYBAH9GmE9Lu0X-43" value="" style="html=1;dropTarget=0;whiteSpace=wrap;" vertex="1" parent="1">
          <mxGeometry x="2508" y="250" width="391" height="411" as="geometry" />
        </mxCell>
        <mxCell id="0330wYEYBAH9GmE9Lu0X-44" value="" style="shape=module;jettyWidth=8;jettyHeight=4;" vertex="1" parent="0330wYEYBAH9GmE9Lu0X-43">
          <mxGeometry x="1" width="20" height="20" relative="1" as="geometry">
            <mxPoint x="-27" y="7" as="offset" />
          </mxGeometry>
        </mxCell>
        <mxCell id="0330wYEYBAH9GmE9Lu0X-45" value="Base de datos" style="text;align=center;fontStyle=1;verticalAlign=middle;spacingLeft=3;spacingRight=3;strokeColor=none;rotatable=0;points=[[0,0.5],[1,0.5]];portConstraint=eastwest;html=1;" vertex="1" parent="1">
          <mxGeometry x="2652" y="253" width="80" height="26" as="geometry" />
        </mxCell>
        <mxCell id="0330wYEYBAH9GmE9Lu0X-46" value="Human Interaction&lt;br&gt;user interface" style="shape=module;align=left;spacingLeft=20;align=center;verticalAlign=top;whiteSpace=wrap;html=1;" vertex="1" parent="1">
          <mxGeometry x="1454" y="347" width="100" height="50" as="geometry" />
        </mxCell>
        <mxCell id="0330wYEYBAH9GmE9Lu0X-47" value="" style="endArrow=open;endFill=1;endSize=12;html=1;rounded=0;exitX=1;exitY=0.5;exitDx=0;exitDy=0;entryX=0;entryY=0;entryDx=10;entryDy=0;entryPerimeter=0;" edge="1" parent="1" source="0330wYEYBAH9GmE9Lu0X-46" target="0330wYEYBAH9GmE9Lu0X-41">
          <mxGeometry width="160" relative="1" as="geometry">
            <mxPoint x="1791" y="459" as="sourcePoint" />
            <mxPoint x="1951" y="459" as="targetPoint" />
          </mxGeometry>
        </mxCell>
        <mxCell id="0330wYEYBAH9GmE9Lu0X-48" value="" style="endArrow=open;endFill=1;endSize=12;html=1;rounded=0;exitX=0.5;exitY=1;exitDx=0;exitDy=0;entryX=0.06;entryY=0.6;entryDx=0;entryDy=0;entryPerimeter=0;" edge="1" parent="1" source="0330wYEYBAH9GmE9Lu0X-46" target="0330wYEYBAH9GmE9Lu0X-42">
          <mxGeometry width="160" relative="1" as="geometry">
            <mxPoint x="1459" y="499" as="sourcePoint" />
            <mxPoint x="1764" y="504" as="targetPoint" />
            <Array as="points">
              <mxPoint x="1506" y="484" />
            </Array>
          </mxGeometry>
        </mxCell>
        <mxCell id="0330wYEYBAH9GmE9Lu0X-49" value="" style="endArrow=open;endFill=1;endSize=12;html=1;rounded=0;exitX=1;exitY=0.5;exitDx=0;exitDy=0;entryX=0.002;entryY=0.355;entryDx=0;entryDy=0;entryPerimeter=0;" edge="1" parent="1" source="0330wYEYBAH9GmE9Lu0X-41" target="0330wYEYBAH9GmE9Lu0X-43">
          <mxGeometry width="160" relative="1" as="geometry">
            <mxPoint x="2188" y="399" as="sourcePoint" />
            <mxPoint x="2493" y="404" as="targetPoint" />
          </mxGeometry>
        </mxCell>
        <mxCell id="0330wYEYBAH9GmE9Lu0X-50" value="" style="endArrow=open;endFill=1;endSize=12;html=1;rounded=0;exitX=1;exitY=0.5;exitDx=0;exitDy=0;entryX=0.004;entryY=0.56;entryDx=0;entryDy=0;entryPerimeter=0;" edge="1" parent="1" source="0330wYEYBAH9GmE9Lu0X-42" target="0330wYEYBAH9GmE9Lu0X-43">
          <mxGeometry width="160" relative="1" as="geometry">
            <mxPoint x="2143" y="457" as="sourcePoint" />
            <mxPoint x="2535" y="457" as="targetPoint" />
          </mxGeometry>
        </mxCell>
        <mxCell id="0330wYEYBAH9GmE9Lu0X-59" value="" style="html=1;dropTarget=0;whiteSpace=wrap;" vertex="1" parent="1">
          <mxGeometry x="1760" y="699.5" width="549" height="411" as="geometry" />
        </mxCell>
        <mxCell id="0330wYEYBAH9GmE9Lu0X-60" value="" style="shape=module;jettyWidth=8;jettyHeight=4;" vertex="1" parent="0330wYEYBAH9GmE9Lu0X-59">
          <mxGeometry x="1" width="20" height="20" relative="1" as="geometry">
            <mxPoint x="-27" y="7" as="offset" />
          </mxGeometry>
        </mxCell>
        <mxCell id="0330wYEYBAH9GmE9Lu0X-62" value="Monitoreo rendimiento" style="shape=module;align=left;spacingLeft=20;align=center;verticalAlign=top;whiteSpace=wrap;html=1;" vertex="1" parent="1">
          <mxGeometry x="1846.5" y="821" width="376" height="50" as="geometry" />
        </mxCell>
        <mxCell id="0330wYEYBAH9GmE9Lu0X-63" value="Gestion de usuarios" style="shape=module;align=left;spacingLeft=20;align=center;verticalAlign=top;whiteSpace=wrap;html=1;" vertex="1" parent="1">
          <mxGeometry x="1853" y="934" width="376" height="50" as="geometry" />
        </mxCell>
        <mxCell id="0330wYEYBAH9GmE9Lu0X-64" value="Sistema de Monitoreo" style="text;align=center;fontStyle=1;verticalAlign=middle;spacingLeft=3;spacingRight=3;strokeColor=none;rotatable=0;points=[[0,0.5],[1,0.5]];portConstraint=eastwest;html=1;" vertex="1" parent="1">
          <mxGeometry x="1939" y="720" width="187" height="26" as="geometry" />
        </mxCell>
        <mxCell id="0330wYEYBAH9GmE9Lu0X-65" value="" style="endArrow=open;endFill=1;endSize=12;html=1;rounded=0;entryX=0.5;entryY=1;entryDx=0;entryDy=0;exitX=1;exitY=0.5;exitDx=0;exitDy=0;" edge="1" parent="1" source="0330wYEYBAH9GmE9Lu0X-62" target="0330wYEYBAH9GmE9Lu0X-43">
          <mxGeometry width="160" relative="1" as="geometry">
            <mxPoint x="2402" y="991" as="sourcePoint" />
            <mxPoint x="2795" y="992" as="targetPoint" />
            <Array as="points">
              <mxPoint x="2706" y="846" />
            </Array>
          </mxGeometry>
        </mxCell>
        <mxCell id="0330wYEYBAH9GmE9Lu0X-66" value="Autenticacion Ciudadano o&lt;br&gt;personal autorizado" style="text;align=center;fontStyle=1;verticalAlign=middle;spacingLeft=3;spacingRight=3;strokeColor=none;rotatable=0;points=[[0,0.5],[1,0.5]];portConstraint=eastwest;html=1;" vertex="1" parent="1">
          <mxGeometry x="1421" y="250" width="187" height="26" as="geometry" />
        </mxCell>
        <mxCell id="0330wYEYBAH9GmE9Lu0X-67" value="" style="endArrow=open;endFill=1;endSize=12;html=1;rounded=0;entryX=0.5;entryY=0;entryDx=0;entryDy=0;" edge="1" parent="1" target="0330wYEYBAH9GmE9Lu0X-46">
          <mxGeometry width="160" relative="1" as="geometry">
            <mxPoint x="1504" y="168" as="sourcePoint" />
            <mxPoint x="1660" y="259" as="targetPoint" />
          </mxGeometry>
        </mxCell>
        <mxCell id="0330wYEYBAH9GmE9Lu0X-71" value="" style="endArrow=open;endFill=1;endSize=12;html=1;rounded=0;exitX=1;exitY=0.5;exitDx=0;exitDy=0;entryX=0.75;entryY=1;entryDx=0;entryDy=0;" edge="1" parent="1" source="0330wYEYBAH9GmE9Lu0X-63" target="0330wYEYBAH9GmE9Lu0X-43">
          <mxGeometry width="160" relative="1" as="geometry">
            <mxPoint x="2727" y="928" as="sourcePoint" />
            <mxPoint x="3010" y="929" as="targetPoint" />
            <Array as="points">
              <mxPoint x="2803" y="959" />
            </Array>
          </mxGeometry>
        </mxCell>
      </root>
    </mxGraphModel>
  </diagram>
</mxfile>
